<svg width="973" height="222" viewBox="0 0 973 222" fill="none" xmlns="http://www.w3.org/2000/svg">
<g clip-path="url(#clip0_2_123)">
<path d="M652.39 57.272V39.6549H645.339V57.272H639.171V63.2745H658.617V57.272H652.39Z" fill="#FFFAFC"/>
<path d="M648.891 77.7943C635.192 77.7943 624.042 66.5967 624.042 52.8379C624.042 39.0791 635.192 27.8815 648.891 27.8815C662.59 27.8815 673.739 39.0791 673.739 52.8379C673.739 66.5967 662.59 77.7943 648.891 77.7943ZM648.891 34.9231C639.059 34.9231 631.06 42.9573 631.06 52.8313C631.06 62.7053 639.059 70.7395 648.891 70.7395C658.722 70.7395 666.721 62.7053 666.721 52.8313C666.721 42.9573 658.722 34.9231 648.891 34.9231Z" fill="#FFFAFC"/>
<path d="M967.063 83.0553L966.938 82.7112C955.064 49.3103 925.656 23.8178 888.261 14.4997C849.608 4.87058 810.059 14.2416 782.397 39.5554C768.467 51.6133 758.741 66.9273 753.727 84.1672C746.439 79.6537 738.308 76.166 729.537 73.9887C702.383 67.2252 674.523 73.8497 654.953 91.7117C652.08 94.2066 649.444 96.9266 647.065 99.8319C639 88.9387 627.166 79.5478 611.911 72.0827C612.544 65.2464 612.069 58.3372 610.402 51.4942C604.512 27.3651 581.33 1.17114 533.927 0.0328456C490.417 -0.933379 446.21 18.1793 409.645 53.8767L438.111 83.2936C467.177 54.9157 500.051 40.3429 532.978 41.0444C551.738 41.4945 565.49 48.1124 569.825 58.5225C540.997 53.2877 510.449 54.9951 487.044 63.7375C464.172 72.0894 448.832 86.2717 444.925 102.671C440.859 119.143 448.509 139.672 474.774 148.646C502.641 158.5 540.76 150.234 563.855 137.065C577.172 129.672 588.065 120.434 596.117 110.11C606.198 115.404 617.242 123.577 618.481 134.351C621.097 157.031 590.99 175.211 568.25 179.612C543.139 184.469 513.645 178.235 478.089 160.539C468.798 155.913 459.461 150.413 449.583 144.589C444.892 141.823 440.147 139.03 435.35 136.297C437.031 106.059 419.753 76.9139 389.489 61.6462C347.152 40.29 298.332 53.1156 248.853 76.5896C231.305 84.9084 218.66 90.1101 199.426 95.2986C186.471 98.7929 170.169 100.381 156.029 99.8981C163.125 86.5761 171.916 73.1615 180.613 59.9388C186.768 50.5809 192.573 41.7393 197.851 32.8381L162.756 11.8459C157.966 19.9331 152.411 28.3843 146.527 37.3384C134.956 54.9422 122.634 73.7041 113.607 93.5051C83.7108 85.6893 53.11 70.9246 23.9127 49.7405L0 83.0024C32.6699 106.701 67.2243 123.418 101.443 132.631C100.217 140.837 99.881 149.182 100.685 157.673L100.738 158.156C105.456 198.043 143.601 221.179 178.617 221.179C179.322 221.179 180.027 221.166 180.732 221.153C212.479 220.769 240.227 205.812 264.72 192.609L245.406 156.462C224.017 167.99 201.904 179.909 180.126 180.134H179.737C158.137 180.803 136.841 166.29 141.71 140.003C163.989 142.108 185.747 140.83 206.318 135.966C227.398 130.983 246.704 122.406 265.372 114.12C272.627 110.897 279.48 107.853 286.464 104.994C323.332 89.8851 350.243 87.7673 371.164 98.323C378.702 102.128 385.64 108.091 389.989 115.503C366.182 108.045 327.845 101.771 294.648 122.32C282.405 129.904 273.991 140.896 270.953 153.272C267.54 167.236 270.354 181.266 278.887 192.801C292.316 210.941 317.586 220.061 336.675 221.047C373.925 222.933 405.099 206.222 422.554 176.25C424.662 177.481 449.669 191.504 459.961 197.315C517.486 229.809 567.928 221.477 575.986 219.915C596.308 215.977 616.642 206.229 631.778 193.159C635.679 189.79 639.171 186.236 642.275 182.53C646.835 190.24 652.712 197.162 659.724 202.801C674.141 214.866 692.433 221.239 710.936 221.239C719.317 221.239 727.745 219.928 735.87 217.248C753.371 211.775 768.408 200.041 778.16 184.489C781.666 188.301 785.422 191.875 789.474 195.124C809.875 212.225 835.784 221.272 862.003 221.272C873.896 221.272 885.856 219.412 897.387 215.594C925.774 206.739 949.588 186.196 962.754 159.195C974.74 134.603 976.235 107.489 967.056 83.0686L967.063 83.0553ZM543.89 101.275C527.232 110.778 501.764 114.742 488.276 109.931L487.979 109.825C487.788 109.759 487.604 109.699 487.426 109.633C489.976 107.515 494.331 104.729 501.138 102.241C514.567 97.2244 532.517 95.5964 550.393 97.2641C548.39 98.6407 546.222 99.9775 543.89 101.275ZM386.029 157.534C386.029 157.534 374.531 178.136 347.258 180.571C340.227 181.2 322.1 179.843 313.692 171.227C304.763 162.087 318.357 148.137 345.538 148.077C365.662 148.031 386.036 157.534 386.036 157.534H386.029ZM713.473 183.503C692.005 185.601 672.948 170.168 670.906 149.037C668.863 127.905 684.605 109.077 706.066 106.979C727.534 104.881 746.591 120.315 748.633 141.446C750.676 162.577 734.934 181.405 713.473 183.503ZM861.225 183C820.641 183 787.734 152.994 787.734 115.986C787.734 78.9787 820.635 48.9728 861.225 48.9728C901.815 48.9728 934.716 78.9787 934.716 115.986C934.716 152.994 901.815 183 861.225 183Z" fill="#FFFAFC"/>
</g>
<defs>
<clipPath id="clip0_2_123">
<rect width="973" height="222" fill="white"/>
</clipPath>
</defs>
</svg>
